<?xml version="1.0" standalone="no"?>
<!DOCTYPE svg PUBLIC "-//W3C//DTD SVG 20010904//EN"
 "http://www.w3.org/TR/2001/REC-SVG-20010904/DTD/svg10.dtd">
<svg version="1.0" xmlns="http://www.w3.org/2000/svg"
 width="1366.000000pt" height="1366.000000pt" viewBox="0 0 1366.000000 1366.000000"
 preserveAspectRatio="xMidYMid meet">
<metadata>
Created by potrace 1.14, written by Peter Selinger 2001-2017
</metadata>
<g transform="translate(0.000000,1366.000000) scale(0.100000,-0.100000)"
fill="#000000" stroke="none">
<path d="M6660 13008 c-127 -33 -236 -93 -340 -187 -19 -18 -109 -103 -199
-189 -91 -86 -179 -170 -196 -187 -115 -109 -357 -339 -405 -385 -31 -30 -121
-116 -200 -190 -78 -74 -171 -162 -205 -195 -98 -93 -376 -357 -405 -385 -14
-14 -100 -96 -191 -182 -90 -86 -200 -191 -244 -232 l-80 -75 445 -1 c245 -1
758 -3 1140 -7 l695 -5 185 189 c102 104 190 192 196 196 7 4 108 -91 244
-227 230 -231 233 -234 264 -225 29 9 340 13 396 5 14 -2 66 -7 115 -10 50 -4
101 -9 115 -11 14 -2 50 -7 80 -10 259 -28 537 -102 850 -227 132 -52 148 -59
275 -118 150 -70 476 -279 820 -526 83 -59 172 -123 200 -142 27 -19 54 -39
60 -44 33 -28 170 -126 173 -123 1 1 -17 22 -40 47 -24 25 -88 94 -143 154
-159 172 -198 214 -230 249 -80 85 -245 263 -269 290 -15 17 -53 57 -84 90
-32 34 -102 109 -157 169 -55 60 -113 123 -130 141 -176 189 -230 248 -245
266 -10 11 -70 75 -132 142 -63 67 -136 146 -164 176 -27 30 -62 69 -79 86
-36 38 -101 108 -255 275 -63 68 -124 134 -135 145 -61 65 -229 247 -244 263
-9 11 -64 71 -122 133 -59 63 -119 128 -134 144 -14 17 -75 82 -134 145 -59
63 -165 177 -235 253 -147 157 -211 210 -325 267 -160 80 -362 102 -531 58z"/>
<path d="M4035 5758 c1 -2526 3 -4595 4 -4598 1 -4 1686 -4 1791 -1 14 1 16
156 15 1507 0 996 3 1508 10 1510 6 2 435 5 955 7 520 2 956 7 970 10 14 3 56
8 93 12 37 3 76 8 85 9 9 2 39 7 65 10 148 22 365 75 523 129 482 165 927 466
1297 877 115 127 295 378 379 529 31 54 118 228 118 235 0 3 11 29 24 58 21
46 59 143 62 158 0 3 4 14 8 25 40 106 100 343 120 480 4 28 10 61 12 75 5 30
13 104 23 220 8 97 7 467 -3 550 -3 30 -9 82 -12 115 -4 33 -8 69 -10 80 -2
10 -6 37 -10 60 -19 134 -74 349 -131 515 -57 164 -186 432 -264 547 -16 24
-29 48 -29 54 0 5 -4 9 -10 9 -5 0 -10 5 -10 12 0 6 -39 63 -87 127 -372 495
-850 862 -1392 1067 -106 41 -324 108 -381 118 -14 2 -45 9 -70 15 -25 5 -60
12 -77 15 -18 4 -48 9 -65 12 -49 8 -86 13 -153 20 -33 3 -71 8 -85 12 -14 3
-867 8 -1896 9 l-1870 4 1 -4593z m3610 2890 c6 -3 31 -9 56 -12 165 -22 348
-94 510 -201 96 -64 282 -249 348 -348 102 -152 180 -338 207 -497 3 -14 7
-32 9 -40 24 -87 25 -412 1 -552 -48 -289 -176 -537 -385 -747 -207 -209 -434
-323 -726 -367 -80 -12 -1814 -11 -1818 1 -2 9 -1 2750 2 2766 1 7 1783 5
1796 -3z"/>
<path d="M3499 10151 c-26 -25 -109 -106 -185 -180 -77 -73 -233 -224 -349
-336 -115 -111 -240 -231 -276 -266 -37 -35 -165 -158 -284 -274 -120 -115
-237 -228 -260 -250 -126 -121 -517 -499 -639 -617 -78 -75 -168 -162 -201
-193 -33 -32 -154 -148 -268 -259 -115 -110 -253 -244 -307 -296 l-99 -95 -5
-490 c-3 -269 -8 -733 -12 -1030 -3 -297 -7 -557 -8 -577 -1 -21 1 -38 4 -38
7 0 100 89 460 440 157 153 321 313 365 355 74 72 496 482 725 705 573 558
1058 1030 1119 1088 31 30 117 114 191 188 l136 133 -3 53 c-1 29 -5 188 -8
353 -9 411 -17 625 -30 785 -2 25 -7 225 -11 445 -3 220 -7 401 -8 401 0 1
-22 -19 -47 -45z"/>
<path d="M10790 8834 c35 -80 146 -386 183 -499 44 -139 60 -197 86 -315 21
-99 26 -122 37 -199 4 -25 8 -55 10 -65 25 -137 24 -562 -1 -771 -12 -102 -16
-131 -20 -150 -3 -11 -7 -38 -10 -60 -14 -101 -91 -464 -100 -473 -3 -3 8 -15
24 -26 26 -19 245 -196 681 -551 81 -66 228 -185 326 -265 99 -80 186 -150
194 -157 8 -7 94 -76 190 -154 96 -78 193 -156 215 -174 137 -112 423 -343
432 -348 11 -7 10 57 -1 498 -10 361 -16 768 -18 1154 l-2 364 -1118 1118
c-615 616 -1120 1119 -1122 1119 -3 0 3 -21 14 -46z"/>
</g>
</svg>
