<?xml version="1.0" encoding="utf-8"?>
<!-- Generator: Adobe Illustrator 27.0.0, SVG Export Plug-In . SVG Version: 6.00 Build 0)  -->
<svg version="1.1" id="Слой_2_00000147214318209915920230000010968930581025750967_"
	 xmlns="http://www.w3.org/2000/svg" xmlns:xlink="http://www.w3.org/1999/xlink" x="0px" y="0px" viewBox="0 0 636.2 571"
	 style="enable-background:new 0 0 636.2 571;" xml:space="preserve">
<style type="text/css">
	.st0{fill:none;stroke:#000000;stroke-width:6;stroke-miterlimit:10;}
	.st1{stroke:#000000;stroke-width:6;stroke-miterlimit:10;}
	.st2{fill:#FFFFFF;stroke:#000000;stroke-width:6;stroke-miterlimit:10;}
	.st3{fill:#FFFFFF;stroke:#000000;stroke-width:6.0001;stroke-miterlimit:10.0001;}
	.st4{fill:none;stroke:#000000;stroke-width:5;stroke-miterlimit:10;}
	.st5{fill:none;}
	.st6{font-family:'Times-Bold';}
	.st7{font-size:82px;}
</style>
<polygon class="st0" points="556.6,173.4 556.6,464.8 89.9,464.8 89.9,173.4 323.3,13.2 "/>
<g>
	<path class="st0" d="M271.6,464.8l-3.4-203.3c0,0,5.4-13.2,18.7-23.3c9-6.8,21.5-12.2,38.4-11.2c42,2.5,52.9,27.7,52.9,27.7v210
		c-29.4,0-58.8,0-88.2,0C283.9,464.8,277.8,464.8,271.6,464.8z"/>
	<line class="st0" x1="311.1" y1="227.8" x2="311.1" y2="464.8"/>
	<line class="st0" x1="290" y1="464.8" x2="290" y2="238.3"/>
	<line class="st0" x1="340.5" y1="464.8" x2="340.5" y2="228.4"/>
	<line class="st0" x1="363.2" y1="464.8" x2="362.6" y2="238.3"/>
</g>
<g>
	<path class="st0" d="M494.2,463.2c0,0,55.1-115-13.3-261.1"/>
	<path class="st1" d="M481.3,202.1c0,0-13.3-1.4-24-16.8c0,0-5.1-6.5-2.1-10.6c3.1-4.1,9.2-2.4,9.2-2.4s3.8-1,11.6,7.5
		C484,188.4,481.3,202.1,481.3,202.1z"/>
	<path class="st1" d="M494.1,227.9c0,0-3.2-16.6,4.3-32.4c0,0,3-7.5,6.8-4.4c3.8,3,4.6,10.9,4.6,10.9s1.9,4.4-1.7,15.6
		C504.6,228.8,494.1,227.9,494.1,227.9z"/>
	<path class="st1" d="M486.9,226c0,0-4-10.6-19.9-15.8c0,0-6.8-2.7-9.9,0.7c-3,3.5-0.2,8.1-0.2,8.1s-0.1,3.3,9.1,7.8
		C475.3,231.3,486.9,226,486.9,226z"/>
	<path class="st1" d="M502.3,258.7c0,0,1.1-15.8,11.3-28.3c0,0,4.3-6,7-2.4s1.5,11,1.5,11s0.6,4.5-5.1,13.7
		C511.2,262.1,502.3,258.7,502.3,258.7z"/>
	<path class="st1" d="M501.8,259.3c0,0,0.2-7.7-13-16.4c0,0-5.5-4-9.7-3s-3.2,4.8-3.2,4.8s-1.4,1.9,5.8,7.9
		C488.8,258.4,501.8,259.3,501.8,259.3z"/>
	<path class="st1" d="M510,286.3c0,0,6.2-15.7,18.4-25.8c0,0,5.4-5,6.2-0.6s-2.6,11.5-2.6,11.5s-1,4.7-8.6,12.6S510,286.3,510,286.3
		z"/>
	<path class="st1" d="M507.5,292.3c0,0-3.3-13.6-15.5-22.7c0,0-5.3-4.5-7.5-0.9s0,9.8,0,9.8s0,4,7.1,11.1
		C498.8,296.7,507.5,292.3,507.5,292.3z"/>
	<path class="st1" d="M515.1,321.8c0,0,6.2-15.7,18.4-25.8c0,0,5.4-5,6.2-0.6s-2.6,11.5-2.6,11.5s-1,4.7-8.6,12.6
		S515.1,321.8,515.1,321.8z"/>
	<path class="st1" d="M511.8,327.9c0,0,1.4-7.4-8.5-17.1c0,0-4.1-4.4-7.8-3.9c-3.7,0.5-3.5,4.3-3.5,4.3s-1.5,1.7,3.7,8.2
		C500.8,325.7,511.8,327.9,511.8,327.9z"/>
	<path class="st1" d="M518.4,361.6c0,0,3.3-9.3,15.2-14.4c0,0,5.1-2.6,7.2,0.3c2.1,2.9-0.1,7-0.1,7s0,2.9-7,7.1
		S518.4,361.6,518.4,361.6z"/>
	<path class="st1" d="M510.6,361.8c0,0,1.6-7.6-6.6-17c0,0-3.4-4.3-6.7-3.6c-3.3,0.7-3.3,4.5-3.3,4.5s-1.4,1.8,2.8,8.1
		C501,360.1,510.6,361.8,510.6,361.8z"/>
</g>
<g>
	<polygon class="st0" points="240.6,464.5 249.1,416.4 249.1,397.8 181.5,397.8 181.5,415.6 192.5,464.5 	"/>
	<line class="st0" x1="249.1" y1="416.4" x2="181.5" y2="416.4"/>
	<path class="st0" d="M215.3,397.8c-0.1,0,0-57.8,0-57.8"/>
	<path class="st1" d="M215.3,392.2c0,0,18.1-12.6,22.8-24.7c4.8-12.2,14.9-16.6,5.9-17.6c-1.5-0.2-1.7-0.1-1.7-0.1
		C245.1,349.3,221.1,346.5,215.3,392.2z"/>
	<path class="st1" d="M215.3,378.1L206,363c-1.2-2-2.6-3.8-4-5.6c-3-3.5-8.3-9.9-12.1-14.3c-6.3-7.4-4.6,13.4-4.6,13.4
		s6.1,21.5,30.2,32"/>
	<ellipse class="st1" cx="218.1" cy="313.3" rx="16.1" ry="16.7"/>
	<path class="st2" d="M223.6,328.7c0.4,0.9,0.9,1.9,1.5,2.8c3.5,5.3,9,7.8,12.4,5.6c3.4-2.2,3.3-8.3-0.2-13.6c-1.1-1.6-2.3-3-3.6-4
		l0,0c-1.2-0.5-2.4-1.2-3.3-1.9l0,0c-2-0.7-3.9-0.6-5.4,0.3c-1,0.7-1.7,1.6-2.1,2.9C223.8,322.9,224.1,325.7,223.6,328.7z"/>
	<path class="st2" d="M212.1,341.3c1,0.3,2.1,0.2,3.2-0.1c3.3-1.1,6.5-4.9,7.9-10.1c0.2-0.8,0.4-1.6,0.5-2.4c0.5-3,0.2-5.8-0.8-7.9
		c-0.8-2-2.2-3.5-4-4c-2-0.5-4.2,0.2-6.1,1.9c-1.8,1.6-3.4,3.9-4.4,6.8c-0.2,0.5-0.3,1-0.5,1.5C206,333.7,207.9,340.1,212.1,341.3z"
		/>
	<path class="st2" d="M191.5,325.6c1.7,3.7,7.7,4.5,13.5,1.8c1.2-0.6,2.4-1.3,3.4-2c1-2.9,2.6-5.2,4.4-6.8c0.1-0.9,0-1.8-0.4-2.7
		c-1.7-3.7-7.7-4.5-13.5-1.8C193.1,316.8,189.8,322,191.5,325.6z"/>
	
		<ellipse transform="matrix(0.3464 -0.9381 0.9381 0.3464 -153.7639 387.7369)" class="st3" cx="201.4" cy="304.2" rx="7.3" ry="11.5"/>
	
		<ellipse transform="matrix(0.9987 -5.090681e-02 5.090681e-02 0.9987 -14.6057 11.3494)" class="st2" cx="215.5" cy="292.4" rx="7.3" ry="11.5"/>
	<path class="st2" d="M225.5,306.3c0.9,0.9,2.1,1.4,3.5,1.5c2.1,0.2,4.6-0.6,7-2.2c1-0.6,1.9-1.4,2.8-2.3c4.5-4.5,5.8-10.4,2.9-13.3
		c-2.9-2.9-8.8-1.5-13.3,3S222.6,303.4,225.5,306.3z"/>
	<path class="st2" d="M230.4,317.5L230.4,317.5c1,0.7,2.1,1.4,3.4,1.9l0,0c0.9,0.4,2,0.7,3,0.9c6.2,1.3,11.9-0.9,12.7-4.8
		c0.8-4-3.5-8.2-9.7-9.5c-1.3-0.3-2.6-0.4-3.8-0.4c-2.4,1.6-4.9,2.3-7,2.2c-1,0.8-1.7,1.8-1.9,3
		C226.6,313.1,227.9,315.6,230.4,317.5z"/>
</g>
<g>
	<path class="st0" d="M160.4,463.2c0,0-55.1-115,13.3-261.1"/>
	<path class="st1" d="M173.3,202.1c0,0,13.3-1.4,24-16.8c0,0,5.1-6.5,2.1-10.6c-3.1-4.1-9.2-2.4-9.2-2.4s-3.8-1-11.6,7.5
		C170.6,188.4,173.3,202.1,173.3,202.1z"/>
	<path class="st1" d="M160.5,227.9c0,0,3.2-16.6-4.3-32.4c0,0-3-7.5-6.8-4.4c-3.8,3-4.6,10.9-4.6,10.9s-1.9,4.4,1.7,15.6
		C150,228.8,160.5,227.9,160.5,227.9z"/>
	<path class="st1" d="M167.6,226c0,0,4-10.6,19.9-15.8c0,0,6.8-2.7,9.9,0.7c3,3.5,0.2,8.1,0.2,8.1s0.1,3.3-9.1,7.8
		C179.2,231.3,167.6,226,167.6,226z"/>
	<path class="st1" d="M152.3,258.7c0,0-1.1-15.8-11.3-28.3c0,0-4.3-6-7-2.4c-2.7,3.7-1.5,11-1.5,11s-0.6,4.5,5.1,13.7
		C143.3,262.1,152.3,258.7,152.3,258.7z"/>
	<path class="st1" d="M152.7,259.3c0,0-0.2-7.7,13-16.4c0,0,5.5-4,9.7-3s3.2,4.8,3.2,4.8s1.4,1.9-5.8,7.9
		C165.8,258.4,152.7,259.3,152.7,259.3z"/>
	<path class="st1" d="M144.6,286.3c0,0-6.2-15.7-18.4-25.8c0,0-5.4-5-6.2-0.6c-0.8,4.4,2.6,11.5,2.6,11.5s1,4.7,8.6,12.6
		C138.8,291.9,144.6,286.3,144.6,286.3z"/>
	<path class="st1" d="M147,292.3c0,0,3.3-13.6,15.5-22.7c0,0,5.3-4.5,7.5-0.9s0,9.8,0,9.8s0,4-7.1,11.1
		C155.8,296.7,147,292.3,147,292.3z"/>
	<path class="st1" d="M139.4,321.8c0,0-6.2-15.7-18.4-25.8c0,0-5.4-5-6.2-0.6c-0.8,4.4,2.6,11.5,2.6,11.5s1,4.7,8.6,12.6
		S139.4,321.8,139.4,321.8z"/>
	<path class="st1" d="M142.7,327.9c0,0-1.4-7.4,8.5-17.1c0,0,4.1-4.4,7.8-3.9s3.5,4.3,3.5,4.3s1.5,1.7-3.7,8.2
		C153.8,325.7,142.7,327.9,142.7,327.9z"/>
	<path class="st1" d="M136.1,361.6c0,0-3.3-9.3-15.2-14.4c0,0-5.1-2.6-7.2,0.3s0.1,7,0.1,7s0,2.9,7,7.1
		C127.8,365.8,136.1,361.6,136.1,361.6z"/>
	<path class="st1" d="M143.9,361.8c0,0-1.6-7.6,6.6-17c0,0,3.4-4.3,6.7-3.6c3.3,0.7,3.3,4.5,3.3,4.5s1.4,1.8-2.8,8.1
		C153.6,360.1,143.9,361.8,143.9,361.8z"/>
</g>
<g>
	<path class="st0" d="M518.4,464.7c34.5-15,75.5-135.1,90.4-148.2"/>
	<path class="st1" d="M609.2,315.8c0,0,6.8,0.1,15.4-13.7c0,0,3.9-5.8,3.4-10.1c-0.6-4.3-4-3.4-4-3.4s-1.6-1.4-7.3,6.1
		S609.2,315.8,609.2,315.8z"/>
	<path class="st1" d="M590.6,337.4c0,0,4.7-5.1,0.9-18.8c0,0-1.3-6-4.7-7.8s-5,1.3-5,1.3s-2.1,0.5-0.8,8.7
		C582.3,329.1,590.6,337.4,590.6,337.4z"/>
	<path class="st1" d="M566,408.6c0,0,2.9-6.6,17.9-8.6c0,0,6.4-1.2,9.6,1.3c3.2,2.5,0.9,5.3,0.9,5.3s0.4,2.2-8.1,4.3
		S566,408.6,566,408.6z"/>
	<path class="st1" d="M581.5,363.1c0,0,1.3-12.2-5.9-23.4c0,0-3-5.3-5.8-2.9c-2.9,2.4-2.8,8.1-2.8,8.1s-1.2,3.3,2.5,11.3
		S581.5,363.1,581.5,363.1z"/>
	<path class="st1" d="M598.4,342.9c0,0,1.7-7.6,16.6-12.9c0,0,6.3-2.6,10.1-0.7s2,5.4,2,5.4s0.9,2.2-7.5,6.3
		C611.3,345.1,598.4,342.9,598.4,342.9z"/>
	<path class="st1" d="M571.5,382.8c0,0-0.7-10.6-8.8-19c0,0-3.4-4.1-5.6-1.6c-2.2,2.4-1.3,7.3-1.3,7.3s-0.5,3,4,9.2
		S571.5,382.8,571.5,382.8z"/>
	<path class="st1" d="M585.9,363.2c0,0,6.9-7.8,19.1-9c0,0,5.4-0.9,5.9,2.5s-3.2,6.6-3.2,6.6s-1.3,2.7-9,4.6
		C591,369.7,585.9,363.2,585.9,363.2z"/>
	<path class="st1" d="M559.4,403.9c0,0-5-12.5-15.4-20.2c0,0-4.6-3.9-5.4-0.3c-0.8,3.6,2,9.2,2,9.2s0.8,3.7,7.2,9.9
		C554.2,408.6,559.4,403.9,559.4,403.9z"/>
	<path class="st1" d="M576.8,384.3c0,0,2.6-4.9,13.2-5.7c0,0,4.6-0.6,6.6,1.4s0.2,4.1,0.2,4.1s0.1,1.7-6.1,2.9
		S576.8,384.3,576.8,384.3z"/>
</g>
<g>
	<path class="st0" d="M127.1,465.3c-34.5-15-75.5-135.1-90.4-148.2"/>
	<path class="st1" d="M36.4,316.3c0,0-6.8,0.1-15.4-13.7c0,0-3.9-5.8-3.4-10.1c0.6-4.3,4-3.4,4-3.4s1.6-1.4,7.3,6.1
		S36.4,316.3,36.4,316.3z"/>
	<path class="st1" d="M54.9,338c0,0-4.7-5.1-0.9-18.8c0,0,1.3-6,4.7-7.8s5,1.3,5,1.3s2.1,0.5,0.8,8.7C63.2,329.7,54.9,338,54.9,338z
		"/>
	<path class="st1" d="M79.5,409.2c0,0-2.9-6.6-17.9-8.6c0,0-6.4-1.2-9.6,1.3c-3.2,2.5-0.9,5.3-0.9,5.3s-0.4,2.2,8.1,4.3
		S79.5,409.2,79.5,409.2z"/>
	<path class="st1" d="M64,363.6c0,0-1.3-12.2,5.9-23.4c0,0,3-5.3,5.8-2.9s2.8,8.1,2.8,8.1s1.2,3.3-2.5,11.3
		C72.4,364.8,64,363.6,64,363.6z"/>
	<path class="st1" d="M47.2,343.5c0,0-1.7-7.6-16.6-12.9c0,0-6.3-2.6-10.1-0.7c-3.8,2-2,5.4-2,5.4s-0.9,2.2,7.5,6.3
		C34.3,345.7,47.2,343.5,47.2,343.5z"/>
	<path class="st1" d="M74,383.4c0,0,0.7-10.6,8.8-19c0,0,3.4-4.1,5.6-1.6s1.3,7.3,1.3,7.3s0.5,3-4,9.2C81.2,385.5,74,383.4,74,383.4
		z"/>
	<path class="st1" d="M59.7,363.8c0,0-6.9-7.8-19.1-9c0,0-5.4-0.9-5.9,2.5s3.2,6.6,3.2,6.6s1.3,2.7,9,4.6
		C54.6,370.3,59.7,363.8,59.7,363.8z"/>
	<path class="st1" d="M86.1,404.5c0,0,5-12.5,15.4-20.2c0,0,4.6-3.9,5.4-0.3s-2,9.2-2,9.2s-0.8,3.7-7.2,9.9
		C91.4,409.2,86.1,404.5,86.1,404.5z"/>
	<path class="st1" d="M68.8,384.9c0,0-2.6-4.9-13.2-5.7c0,0-4.6-0.6-6.6,1.4s-0.2,4.1-0.2,4.1s-0.1,1.7,6.1,2.9
		S68.8,384.9,68.8,384.9z"/>
</g>
<g>
	<circle class="st4" cx="323.3" cy="141.4" r="21"/>
	<line class="st4" x1="323.3" y1="120.4" x2="323.3" y2="162.4"/>
	<line class="st4" x1="302.2" y1="141.4" x2="344.3" y2="141.4"/>
</g>
<rect x="86.1" y="484.3" class="st5" width="524.8" height="102.7"/>
<text transform="matrix(1 0 0 1 86.0983 539.6841)" class="st6 st7">Lovely House</text>
<g>
	<polygon class="st0" points="414,463.6 405.6,415.5 405.6,396.9 473.1,396.9 473.1,414.6 462.2,463.6 	"/>
	<line class="st0" x1="405.6" y1="415.5" x2="473.1" y2="415.5"/>
	<path class="st0" d="M439.4,396.9c0.1,0,0-57.8,0-57.8"/>
	<path class="st1" d="M439.4,391.3c0,0-18.1-12.6-22.8-24.7c-4.8-12.2-14.9-16.6-5.9-17.6c1.5-0.2,1.7-0.1,1.7-0.1
		C409.6,348.4,433.6,345.5,439.4,391.3z"/>
	<path class="st1" d="M439.4,377.2l9.3-15.1c1.2-2,2.6-3.8,4-5.6c3-3.5,8.3-9.9,12.1-14.3c6.3-7.4,4.6,13.4,4.6,13.4
		s-6.1,21.5-30.2,32"/>
	<ellipse class="st1" cx="436.6" cy="312.3" rx="16.1" ry="16.7"/>
	<path class="st2" d="M431,327.7c-0.4,0.9-0.9,1.9-1.5,2.8c-3.5,5.3-9,7.8-12.4,5.6c-3.4-2.2-3.3-8.3,0.2-13.6c1.1-1.6,2.3-3,3.6-4
		l0,0c1.2-0.5,2.4-1.2,3.3-1.9l0,0c2-0.7,3.9-0.6,5.4,0.3c1,0.7,1.7,1.6,2.1,2.9C430.9,321.9,430.6,324.7,431,327.7z"/>
	<path class="st2" d="M442.5,340.4c-1,0.3-2.1,0.2-3.2-0.1c-3.3-1.1-6.5-4.9-7.9-10.1c-0.2-0.8-0.4-1.6-0.5-2.4
		c-0.5-3-0.2-5.8,0.8-7.9c0.8-2,2.2-3.5,4-4c2-0.5,4.2,0.2,6.1,1.9c1.8,1.6,3.4,3.9,4.4,6.8c0.2,0.5,0.3,1,0.5,1.5
		C448.7,332.8,446.8,339.2,442.5,340.4z"/>
	<path class="st2" d="M463.2,324.7c-1.7,3.7-7.7,4.5-13.5,1.8c-1.2-0.6-2.4-1.3-3.4-2c-1-2.9-2.6-5.2-4.4-6.8
		c-0.1-0.9,0-1.8,0.4-2.7c1.7-3.7,7.7-4.5,13.5-1.8C461.6,315.9,464.9,321,463.2,324.7z"/>
	
		<ellipse transform="matrix(0.9381 -0.3464 0.3464 0.9381 -76.9634 175.7939)" class="st3" cx="453.3" cy="303.2" rx="11.5" ry="7.3"/>
	
		<ellipse transform="matrix(5.090681e-02 -0.9987 0.9987 5.090681e-02 125.7366 715.2165)" class="st2" cx="439.2" cy="291.5" rx="11.5" ry="7.3"/>
	<path class="st2" d="M429.2,305.4c-0.9,0.9-2.1,1.4-3.5,1.5c-2.1,0.2-4.6-0.6-7-2.2c-1-0.6-1.9-1.4-2.8-2.3
		c-4.5-4.5-5.8-10.4-2.9-13.3s8.8-1.5,13.3,3C430.7,296.5,432.1,302.5,429.2,305.4z"/>
	<path class="st2" d="M424.3,316.6L424.3,316.6c-1,0.7-2.1,1.4-3.4,1.9l0,0c-0.9,0.4-2,0.7-3,0.9c-6.2,1.3-11.9-0.9-12.7-4.8
		c-0.8-4,3.5-8.2,9.7-9.5c1.3-0.3,2.6-0.4,3.8-0.4c2.4,1.6,4.9,2.3,7,2.2c1,0.8,1.7,1.8,1.9,3C428.1,312.2,426.7,314.7,424.3,316.6z
		"/>
</g>
</svg>
