<?xml version="1.0" encoding="utf-8"?>
<!-- Generator: Adobe Illustrator 27.0.0, SVG Export Plug-In . SVG Version: 6.00 Build 0)  -->
<svg version="1.1" id="Слой_2_00000124126626247620198510000011497999312126612871_"
	 xmlns="http://www.w3.org/2000/svg" xmlns:xlink="http://www.w3.org/1999/xlink" x="0px" y="0px" viewBox="0 0 609.9 585.7"
	 style="enable-background:new 0 0 609.9 585.7;" xml:space="preserve">
<style type="text/css">
	.st0{fill:none;stroke:#000000;stroke-width:3;stroke-miterlimit:10;}
	.st1{stroke:#000000;stroke-width:3;stroke-miterlimit:10;}
	.st2{fill:none;stroke:#000000;stroke-width:3;stroke-miterlimit:10.0001;}
	.st3{stroke:#000000;stroke-miterlimit:10;}
	.st4{fill:none;}
	.st5{font-family:'Times-Roman';}
	.st6{font-size:85.2229px;}
	.st7{font-size:35.983px;}
</style>
<polygon class="st0" points="539.1,160.3 539.1,451.6 72.3,451.6 72.3,160.3 305.7,0 "/>
<g>
	<path class="st0" d="M254,451.6l-3.4-203.3c0,0,5.4-13.2,18.7-23.3c9-6.8,21.5-12.2,38.4-11.2c42,2.5,52.9,27.7,52.9,27.7v210
		c-29.4,0-58.8,0-88.2,0C266.3,451.6,260.2,451.6,254,451.6z"/>
	<line class="st0" x1="293.5" y1="214.7" x2="293.5" y2="451.6"/>
	<line class="st0" x1="272.5" y1="451.6" x2="272.5" y2="225.1"/>
	<line class="st0" x1="322.9" y1="451.6" x2="322.9" y2="215.2"/>
	<line class="st0" x1="345.6" y1="451.6" x2="345.1" y2="225.1"/>
</g>
<g>
	<polygon class="st0" points="396.4,451.3 387.9,403.2 387.9,384.6 455.5,384.6 455.5,402.4 444.5,451.3 	"/>
	<line class="st0" x1="387.9" y1="403.2" x2="455.5" y2="403.2"/>
	<path class="st0" d="M421.7,384.6c0.1,0,0-57.8,0-57.8"/>
	<path class="st1" d="M421.7,379c0,0-18.1-12.6-22.8-24.7c-4.8-12.2-14.9-16.6-5.9-17.6c1.5-0.2,1.7-0.1,1.7-0.1
		C391.9,336.1,415.9,333.3,421.7,379z"/>
	<path class="st1" d="M421.7,364.9l9.3-15.1c1.2-2,2.6-3.8,4-5.6c3-3.5,8.3-9.9,12.1-14.3c6.3-7.4,4.6,13.4,4.6,13.4
		s-6.1,21.5-30.2,32"/>
	<path class="st0" d="M413.3,315.4c-0.4,0.9-0.9,1.9-1.5,2.8c-3.5,5.3-9,7.8-12.4,5.6c-3.4-2.2-3.3-8.3,0.2-13.6
		c1.1-1.6,2.3-3,3.6-4l0,0c1.2-0.5,2.4-1.2,3.3-1.9l0,0c2-0.7,3.9-0.6,5.4,0.3c1,0.7,1.7,1.6,2.1,2.9
		C413.2,309.7,412.9,312.5,413.3,315.4z"/>
	<path class="st0" d="M424.9,328.1c-1,0.3-2.1,0.2-3.2-0.1c-3.3-1.1-6.5-4.9-7.9-10.1c-0.2-0.8-0.4-1.6-0.5-2.4
		c-0.5-3-0.2-5.8,0.8-7.9c0.8-2,2.2-3.5,4-4c2-0.5,4.2,0.2,6.1,1.9c1.8,1.6,3.4,3.9,4.4,6.8c0.2,0.5,0.3,1,0.5,1.5
		C431,320.5,429.1,326.9,424.9,328.1z"/>
	<path class="st0" d="M445.5,312.4c-1.7,3.7-7.7,4.5-13.5,1.8c-1.2-0.6-2.4-1.3-3.4-2c-1-2.9-2.6-5.2-4.4-6.8
		c-0.1-0.9,0-1.8,0.4-2.7c1.7-3.7,7.7-4.5,13.5-1.8S447.2,308.7,445.5,312.4z"/>
	
		<ellipse transform="matrix(0.9381 -0.3464 0.3464 0.9381 -73.7862 168.9295)" class="st2" cx="435.7" cy="290.9" rx="11.5" ry="7.3"/>
	
		<ellipse transform="matrix(5.090681e-02 -0.9987 0.9987 5.090681e-02 121.1632 685.9297)" class="st0" cx="421.5" cy="279.2" rx="11.5" ry="7.3"/>
	<path class="st0" d="M411.5,293.1c-0.9,0.9-2.1,1.4-3.5,1.5c-2.1,0.2-4.6-0.6-7-2.2c-1-0.6-1.9-1.4-2.8-2.3
		c-4.5-4.5-5.8-10.4-2.9-13.3s8.8-1.5,13.3,3C413.1,284.3,414.4,290.2,411.5,293.1z"/>
	<path class="st0" d="M406.6,304.3L406.6,304.3c-1,0.7-2.1,1.4-3.4,1.9l0,0c-0.9,0.4-2,0.7-3,0.9c-6.2,1.3-11.9-0.9-12.7-4.8
		c-0.8-4,3.5-8.2,9.7-9.5c1.3-0.3,2.6-0.4,3.8-0.4c2.4,1.6,4.9,2.3,7,2.2c1,0.8,1.7,1.8,1.9,3C410.4,299.9,409.1,302.4,406.6,304.3z
		"/>
	<circle class="st3" cx="416.6" cy="297.8" r="6.6"/>
</g>
<g>
	<path class="st0" d="M476.6,450c0,0,55.1-115-13.3-261.1"/>
	<path class="st1" d="M463.7,189c0,0-13.3-1.4-24-16.8c0,0-5.1-6.5-2.1-10.6c3.1-4.1,9.2-2.4,9.2-2.4s3.8-1,11.6,7.5
		C466.4,175.3,463.7,189,463.7,189z"/>
	<path class="st1" d="M476.5,214.8c0,0-3.2-16.6,4.3-32.4c0,0,3-7.5,6.8-4.4s4.6,10.9,4.6,10.9s1.9,4.4-1.7,15.6
		C487,215.7,476.5,214.8,476.5,214.8z"/>
	<path class="st1" d="M469.3,212.8c0,0-4-10.6-19.9-15.8c0,0-6.8-2.7-9.9,0.7s-0.2,8.1-0.2,8.1s-0.1,3.3,9.1,7.8
		C457.8,218.2,469.3,212.8,469.3,212.8z"/>
	<path class="st1" d="M484.7,245.6c0,0,1.1-15.8,11.3-28.3c0,0,4.3-6,7-2.4s1.5,11,1.5,11s0.6,4.5-5.1,13.7
		C493.7,248.9,484.7,245.6,484.7,245.6z"/>
	<path class="st1" d="M484.3,246.2c0,0,0.2-7.7-13-16.4c0,0-5.5-4-9.7-3s-3.2,4.8-3.2,4.8s-1.4,1.9,5.8,7.9
		C471.2,245.3,484.3,246.2,484.3,246.2z"/>
	<path class="st1" d="M492.4,273.1c0,0,6.2-15.7,18.4-25.8c0,0,5.4-5,6.2-0.6s-2.6,11.5-2.6,11.5s-1,4.7-8.6,12.6
		S492.4,273.1,492.4,273.1z"/>
	<path class="st1" d="M489.9,279.1c0,0-3.3-13.6-15.5-22.7c0,0-5.3-4.5-7.5-0.9s0,9.8,0,9.8s0,4,7.1,11.1
		C481.2,283.5,489.9,279.1,489.9,279.1z"/>
	<path class="st1" d="M497.6,308.7c0,0,6.2-15.7,18.4-25.8c0,0,5.4-5,6.2-0.6s-2.6,11.5-2.6,11.5s-1,4.7-8.6,12.6
		S497.6,308.7,497.6,308.7z"/>
	<path class="st1" d="M494.3,314.8c0,0,1.4-7.4-8.5-17.1c0,0-4.1-4.4-7.8-3.9c-3.7,0.5-3.5,4.3-3.5,4.3s-1.5,1.7,3.7,8.2
		C483.2,312.6,494.3,314.8,494.3,314.8z"/>
	<path class="st1" d="M500.9,348.5c0,0,3.3-9.3,15.2-14.4c0,0,5.1-2.6,7.2,0.3c2.1,2.9-0.1,7-0.1,7s0,2.9-7,7.1
		S500.9,348.5,500.9,348.5z"/>
	<path class="st1" d="M493.1,348.6c0,0,1.6-7.6-6.6-17c0,0-3.4-4.3-6.7-3.6c-3.3,0.7-3.3,4.5-3.3,4.5s-1.4,1.8,2.8,8.1
		S493.1,348.6,493.1,348.6z"/>
</g>
<g>
	<polygon class="st0" points="223,451.4 231.5,403.3 231.5,384.7 163.9,384.7 163.9,402.4 174.9,451.4 	"/>
	<line class="st0" x1="231.5" y1="403.3" x2="163.9" y2="403.3"/>
	<path class="st0" d="M197.7,384.7c-0.1,0,0-57.8,0-57.8"/>
	<path class="st1" d="M197.7,379.1c0,0,18.1-12.6,22.8-24.7c4.8-12.2,14.9-16.6,5.9-17.6c-1.5-0.2-1.7-0.1-1.7-0.1
		C227.5,336.2,203.5,333.3,197.7,379.1z"/>
	<path class="st1" d="M197.7,364.9l-9.3-15.1c-1.2-2-2.6-3.8-4-5.6c-3-3.5-8.3-9.9-12.1-14.3c-6.3-7.4-4.6,13.4-4.6,13.4
		s6.1,21.5,30.2,32"/>
	<path class="st0" d="M206.1,315.5c0.4,0.9,0.9,1.9,1.5,2.8c3.5,5.3,9,7.8,12.4,5.6c3.4-2.2,3.3-8.3-0.2-13.6c-1.1-1.6-2.3-3-3.6-4
		l0,0c-1.2-0.5-2.4-1.2-3.3-1.9l0,0c-2-0.7-3.9-0.6-5.4,0.3c-1,0.7-1.7,1.6-2.1,2.9C206.2,309.7,206.5,312.5,206.1,315.5z"/>
	<path class="st0" d="M194.6,328.1c1,0.3,2.1,0.2,3.2-0.1c3.3-1.1,6.5-4.9,7.9-10.1c0.2-0.8,0.4-1.6,0.5-2.4c0.5-3,0.2-5.8-0.8-7.9
		c-0.8-2-2.2-3.5-4-4c-2-0.5-4.2,0.2-6.1,1.9c-1.8,1.6-3.4,3.9-4.4,6.8c-0.2,0.5-0.3,1-0.5,1.5C188.4,320.5,190.3,327,194.6,328.1z"
		/>
	<path class="st0" d="M173.9,312.5c1.7,3.7,7.7,4.5,13.5,1.8c1.2-0.6,2.4-1.3,3.4-2c1-2.9,2.6-5.2,4.4-6.8c0.1-0.9,0-1.8-0.4-2.7
		c-1.7-3.7-7.7-4.5-13.5-1.8C175.5,303.7,172.2,308.8,173.9,312.5z"/>
	
		<ellipse transform="matrix(0.3464 -0.9381 0.9381 0.3464 -152.8408 362.5771)" class="st2" cx="183.8" cy="291" rx="7.3" ry="11.5"/>
	
		<ellipse transform="matrix(0.9987 -5.090681e-02 5.090681e-02 0.9987 -13.9617 10.4366)" class="st0" cx="197.9" cy="279.3" rx="7.3" ry="11.5"/>
	<path class="st0" d="M207.9,293.1c0.9,0.9,2.1,1.4,3.5,1.5c2.1,0.2,4.6-0.6,7-2.2c1-0.6,1.9-1.4,2.8-2.3c4.5-4.5,5.8-10.4,2.9-13.3
		c-2.9-2.9-8.8-1.5-13.3,3C206.4,284.3,205,290.3,207.9,293.1z"/>
	<path class="st0" d="M212.8,304.3L212.8,304.3c1,0.7,2.1,1.4,3.4,1.9l0,0c0.9,0.4,2,0.7,3,0.9c6.2,1.3,11.9-0.9,12.7-4.8
		c0.8-4-3.5-8.2-9.7-9.5c-1.3-0.3-2.6-0.4-3.8-0.4c-2.4,1.6-4.9,2.3-7,2.2c-1,0.8-1.7,1.8-1.9,3C209,300,210.4,302.5,212.8,304.3z"
		/>
	<circle class="st3" cx="202.8" cy="297.8" r="6.6"/>
</g>
<g>
	<path class="st0" d="M142.8,450c0,0-55.1-115,13.3-261.1"/>
	<path class="st1" d="M155.7,189c0,0,13.3-1.4,24-16.8c0,0,5.1-6.5,2.1-10.6c-3.1-4.1-9.2-2.4-9.2-2.4s-3.8-1-11.6,7.5
		C153,175.3,155.7,189,155.7,189z"/>
	<path class="st1" d="M142.9,214.8c0,0,3.2-16.6-4.3-32.4c0,0-3-7.5-6.8-4.4c-3.8,3-4.6,10.9-4.6,10.9s-1.9,4.4,1.7,15.6
		S142.9,214.8,142.9,214.8z"/>
	<path class="st1" d="M150.1,212.8c0,0,4-10.6,19.9-15.8c0,0,6.8-2.7,9.9,0.7c3,3.5,0.2,8.1,0.2,8.1s0.1,3.3-9.1,7.8
		C161.7,218.2,150.1,212.8,150.1,212.8z"/>
	<path class="st1" d="M134.7,245.6c0,0-1.1-15.8-11.3-28.3c0,0-4.3-6-7-2.4s-1.5,11-1.5,11s-0.6,4.5,5.1,13.7
		S134.7,245.6,134.7,245.6z"/>
	<path class="st1" d="M135.2,246.2c0,0-0.2-7.7,13-16.4c0,0,5.5-4,9.7-3s3.2,4.8,3.2,4.8s1.4,1.9-5.8,7.9
		C148.2,245.3,135.2,246.2,135.2,246.2z"/>
	<path class="st1" d="M127,273.1c0,0-6.2-15.7-18.4-25.8c0,0-5.4-5-6.2-0.6c-0.8,4.4,2.6,11.5,2.6,11.5s1,4.7,8.6,12.6
		S127,273.1,127,273.1z"/>
	<path class="st1" d="M129.5,279.1c0,0,3.3-13.6,15.5-22.7c0,0,5.3-4.5,7.5-0.9s0,9.8,0,9.8s0,4-7.1,11.1
		C138.2,283.5,129.5,279.1,129.5,279.1z"/>
	<path class="st1" d="M121.9,308.7c0,0-6.2-15.7-18.4-25.8c0,0-5.4-5-6.2-0.6c-0.8,4.4,2.6,11.5,2.6,11.5s1,4.7,8.6,12.6
		S121.9,308.7,121.9,308.7z"/>
	<path class="st1" d="M125.2,314.8c0,0-1.4-7.4,8.5-17.1c0,0,4.1-4.4,7.8-3.9s3.5,4.3,3.5,4.3s1.5,1.7-3.7,8.2
		C136.2,312.6,125.2,314.8,125.2,314.8z"/>
	<path class="st1" d="M118.6,348.5c0,0-3.3-9.3-15.2-14.4c0,0-5.1-2.6-7.2,0.3s0.1,7,0.1,7s0,2.9,7,7.1
		C110.2,352.7,118.6,348.5,118.6,348.5z"/>
	<path class="st1" d="M126.4,348.6c0,0-1.6-7.6,6.6-17c0,0,3.4-4.3,6.7-3.6s3.3,4.5,3.3,4.5s1.4,1.8-2.8,8.1
		C136,347,126.4,348.6,126.4,348.6z"/>
</g>
<g>
	<path class="st0" d="M500.9,451.6c34.5-15,75.5-135.1,90.4-148.2"/>
	<path class="st1" d="M591.6,302.6c0,0,6.8,0.1,15.4-13.7c0,0,3.9-5.8,3.4-10.1c-0.6-4.3-4-3.4-4-3.4s-1.6-1.4-7.3,6.1
		S591.6,302.6,591.6,302.6z"/>
	<path class="st1" d="M573,324.3c0,0,4.7-5.1,0.9-18.8c0,0-1.3-6-4.7-7.8s-5,1.3-5,1.3s-2.1,0.5-0.8,8.7
		C564.7,315.9,573,324.3,573,324.3z"/>
	<path class="st1" d="M548.5,395.4c0,0,2.9-6.6,17.9-8.6c0,0,6.4-1.2,9.6,1.3c3.2,2.5,0.9,5.3,0.9,5.3s0.4,2.2-8.1,4.3
		C560.1,399.9,548.5,395.4,548.5,395.4z"/>
	<path class="st1" d="M563.9,349.9c0,0,1.3-12.2-5.9-23.4c0,0-3-5.3-5.8-2.9c-2.9,2.4-2.8,8.1-2.8,8.1s-1.2,3.3,2.5,11.3
		S563.9,349.9,563.9,349.9z"/>
	<path class="st1" d="M580.8,329.7c0,0,1.7-7.6,16.6-12.9c0,0,6.3-2.6,10.1-0.7c3.8,2,2,5.4,2,5.4s0.9,2.2-7.5,6.3
		C593.7,332,580.8,329.7,580.8,329.7z"/>
	<path class="st1" d="M554,369.6c0,0-0.7-10.6-8.8-19c0,0-3.4-4.1-5.6-1.6c-2.2,2.4-1.3,7.3-1.3,7.3s-0.5,3,4,9.2
		C546.8,371.8,554,369.6,554,369.6z"/>
	<path class="st1" d="M568.3,350.1c0,0,6.9-7.8,19.1-9c0,0,5.4-0.9,5.9,2.5s-3.2,6.6-3.2,6.6s-1.3,2.7-9,4.6
		C573.4,356.6,568.3,350.1,568.3,350.1z"/>
	<path class="st1" d="M541.9,390.7c0,0-5-12.5-15.4-20.2c0,0-4.6-3.9-5.4-0.3c-0.8,3.6,2,9.2,2,9.2s0.8,3.7,7.2,9.9
		S541.9,390.7,541.9,390.7z"/>
	<path class="st1" d="M559.2,371.2c0,0,2.6-4.9,13.2-5.7c0,0,4.6-0.6,6.6,1.4s0.2,4.1,0.2,4.1s0.1,1.7-6.1,2.9
		C567,375.1,559.2,371.2,559.2,371.2z"/>
</g>
<g>
	<path class="st0" d="M109.5,452.2C75,437.1,34,317,19.1,304"/>
	<path class="st1" d="M18.8,303.2c0,0-6.8,0.1-15.4-13.7c0,0-3.9-5.8-3.4-10.1c0.6-4.3,4-3.4,4-3.4s1.6-1.4,7.3,6.1
		S18.8,303.2,18.8,303.2z"/>
	<path class="st1" d="M37.4,324.9c0,0-4.7-5.1-0.9-18.8c0,0,1.3-6,4.7-7.8s5,1.3,5,1.3s2.1,0.5,0.8,8.7
		C45.6,316.5,37.4,324.9,37.4,324.9z"/>
	<path class="st1" d="M61.9,396c0,0-2.9-6.6-17.9-8.6c0,0-6.4-1.2-9.6,1.3c-3.2,2.5-0.9,5.3-0.9,5.3s-0.4,2.2,8.1,4.3
		S61.9,396,61.9,396z"/>
	<path class="st1" d="M46.4,350.5c0,0-1.3-12.2,5.9-23.4c0,0,3-5.3,5.8-2.9s2.8,8.1,2.8,8.1s1.2,3.3-2.5,11.3S46.4,350.5,46.4,350.5
		z"/>
	<path class="st1" d="M29.6,330.3c0,0-1.7-7.6-16.6-12.9c0,0-6.3-2.6-10.1-0.7c-3.8,2-2,5.4-2,5.4s-0.9,2.2,7.5,6.3
		S29.6,330.3,29.6,330.3z"/>
	<path class="st1" d="M56.4,370.2c0,0,0.7-10.6,8.8-19c0,0,3.4-4.1,5.6-1.6c2.2,2.4,1.3,7.3,1.3,7.3s0.5,3-4,9.2
		S56.4,370.2,56.4,370.2z"/>
	<path class="st1" d="M42.1,350.6c0,0-6.9-7.8-19.1-9c0,0-5.4-0.9-5.9,2.5s3.2,6.6,3.2,6.6s1.3,2.7,9,4.6S42.1,350.6,42.1,350.6z"/>
	<path class="st1" d="M68.5,391.3c0,0,5-12.5,15.4-20.2c0,0,4.6-3.9,5.4-0.3s-2,9.2-2,9.2s-0.8,3.7-7.2,9.9
		C73.8,396,68.5,391.3,68.5,391.3z"/>
	<path class="st1" d="M51.2,371.8c0,0-2.6-4.9-13.2-5.7c0,0-4.6-0.6-6.6,1.4s-0.2,4.1-0.2,4.1s-0.1,1.7,6.1,2.9
		C43.4,375.7,51.2,371.8,51.2,371.8z"/>
</g>
<circle class="st0" cx="305.7" cy="128.2" r="21"/>
<line class="st0" x1="305.7" y1="107.2" x2="305.7" y2="149.3"/>
<line class="st0" x1="284.7" y1="128.2" x2="326.7" y2="128.2"/>
<rect x="68.5" y="471.1" class="st4" width="485.4" height="102.7"/>
<text transform="matrix(1 0 0 1 68.5213 529.3063)" class="st5 st6">Lovely House</text>
<rect x="231.4" y="561.1" class="st4" width="308.5" height="63.4"/>
<text transform="matrix(1 0 0 1 231.3513 585.6501)" class="st5 st7">ESTD 2023</text>
</svg>
