<?xml version="1.0" encoding="utf-8"?>
<!-- Generator: Adobe Illustrator 27.0.0, SVG Export Plug-In . SVG Version: 6.00 Build 0)  -->
<svg version="1.1" id="Слой_2_00000062154559647104546600000010432077766825693616_"
	 xmlns="http://www.w3.org/2000/svg" xmlns:xlink="http://www.w3.org/1999/xlink" x="0px" y="0px" viewBox="0 0 630.8 623.7"
	 style="enable-background:new 0 0 630.8 623.7;" xml:space="preserve">
<style type="text/css">
	.st0{fill:none;stroke:#000000;stroke-width:12;stroke-miterlimit:10;}
	.st1{fill:none;stroke:#000000;stroke-width:8;stroke-miterlimit:10;}
	.st2{stroke:#000000;stroke-width:8;stroke-miterlimit:10;}
	.st3{fill:#FFFFFF;stroke:#000000;stroke-width:8;stroke-miterlimit:10;}
	.st4{fill:#FFFFFF;stroke:#000000;stroke-width:8.0001;stroke-miterlimit:10.0001;}
	.st5{fill:none;stroke:#000000;stroke-width:9;stroke-miterlimit:10;}
	.st6{fill:none;}
	.st7{font-family:'Times-Bold';}
	.st8{font-size:82px;}
	.st9{font-size:49px;}
</style>
<polygon class="st0" points="552.2,177.8 552.2,469.2 85.4,469.2 85.4,177.8 318.8,17.5 "/>
<g>
	<path class="st0" d="M267.1,469.2l-3.4-203.3c0,0,5.4-13.2,18.7-23.3c9-6.8,21.5-12.2,38.4-11.2c42,2.5,52.9,27.7,52.9,27.7v210
		c-29.4,0-58.8,0-88.2,0C279.4,469.2,273.3,469.2,267.1,469.2z"/>
	<line class="st0" x1="306.6" y1="232.2" x2="306.6" y2="469.2"/>
	<line class="st0" x1="285.6" y1="469.2" x2="285.6" y2="242.7"/>
	<line class="st0" x1="336" y1="469.2" x2="336" y2="232.8"/>
	<line class="st0" x1="358.7" y1="469.2" x2="358.2" y2="242.7"/>
</g>
<g>
	<path class="st1" d="M489.7,467.6c0,0,55.1-115-13.3-261.1"/>
	<path class="st2" d="M476.8,206.5c0,0-13.3-1.4-24-16.8c0,0-5.1-6.5-2.1-10.6c3.1-4.1,9.2-2.4,9.2-2.4s3.8-1,11.6,7.5
		C479.5,192.8,476.8,206.5,476.8,206.5z"/>
	<path class="st2" d="M489.6,232.3c0,0-3.2-16.6,4.3-32.4c0,0,3-7.5,6.8-4.4c3.8,3,4.6,10.9,4.6,10.9s1.9,4.4-1.7,15.6
		C500.1,233.2,489.6,232.3,489.6,232.3z"/>
	<path class="st2" d="M482.5,230.4c0,0-4-10.6-19.9-15.8c0,0-6.8-2.7-9.9,0.7c-3,3.5-0.2,8.1-0.2,8.1s-0.1,3.3,9.1,7.8
		S482.5,230.4,482.5,230.4z"/>
	<path class="st2" d="M497.8,263.1c0,0,1.1-15.8,11.3-28.3c0,0,4.3-6,7-2.4s1.5,11,1.5,11s0.6,4.5-5.1,13.7
		C506.8,266.5,497.8,263.1,497.8,263.1z"/>
	<path class="st2" d="M497.4,263.7c0,0,0.2-7.7-13-16.4c0,0-5.5-4-9.7-3s-3.2,4.8-3.2,4.8s-1.4,1.9,5.8,7.9
		C484.3,262.8,497.4,263.7,497.4,263.7z"/>
	<path class="st2" d="M505.5,290.7c0,0,6.2-15.7,18.4-25.8c0,0,5.4-5,6.2-0.6s-2.6,11.5-2.6,11.5s-1,4.7-8.6,12.6
		C511.3,296.3,505.5,290.7,505.5,290.7z"/>
	<path class="st2" d="M503.1,296.7c0,0-3.3-13.6-15.5-22.7c0,0-5.3-4.5-7.5-0.9s0,9.8,0,9.8s0,4,7.1,11.1S503.1,296.7,503.1,296.7z"
		/>
	<path class="st2" d="M510.7,326.2c0,0,6.2-15.7,18.4-25.8c0,0,5.4-5,6.2-0.6s-2.6,11.5-2.6,11.5s-1,4.7-8.6,12.6
		C516.4,331.9,510.7,326.2,510.7,326.2z"/>
	<path class="st2" d="M507.4,332.3c0,0,1.4-7.4-8.5-17.1c0,0-4.1-4.4-7.8-3.9c-3.7,0.5-3.5,4.3-3.5,4.3s-1.5,1.7,3.7,8.2
		C496.3,330.1,507.4,332.3,507.4,332.3z"/>
	<path class="st2" d="M514,366c0,0,3.3-9.3,15.2-14.4c0,0,5.1-2.6,7.2,0.3c2.1,2.9-0.1,7-0.1,7s0,2.9-7,7.1S514,366,514,366z"/>
	<path class="st2" d="M506.2,366.2c0,0,1.6-7.6-6.6-17c0,0-3.4-4.3-6.7-3.6c-3.3,0.7-3.3,4.5-3.3,4.5s-1.4,1.8,2.8,8.1
		C496.5,364.5,506.2,366.2,506.2,366.2z"/>
</g>
<g>
	<polygon class="st1" points="236.2,468.9 244.6,420.8 244.6,402.2 177,402.2 177,420 188,468.9 	"/>
	<line class="st1" x1="244.6" y1="420.8" x2="177" y2="420.8"/>
	<path class="st1" d="M210.8,402.2c-0.1,0,0-57.8,0-57.8"/>
	<path class="st2" d="M210.8,396.6c0,0,18.1-12.6,22.8-24.7c4.8-12.2,14.9-16.6,5.9-17.6c-1.5-0.2-1.7-0.1-1.7-0.1
		C240.6,353.7,216.6,350.9,210.8,396.6z"/>
	<path class="st2" d="M210.8,382.5l-9.3-15.1c-1.2-2-2.6-3.8-4-5.6c-3-3.5-8.3-9.9-12.1-14.3c-6.3-7.4-4.6,13.4-4.6,13.4
		s6.1,21.5,30.2,32"/>
	<ellipse class="st2" cx="213.6" cy="317.7" rx="16.1" ry="16.7"/>
	<path class="st3" d="M219.2,333c0.4,0.9,0.9,1.9,1.5,2.8c3.5,5.3,9,7.8,12.4,5.6c3.4-2.2,3.3-8.3-0.2-13.6c-1.1-1.6-2.3-3-3.6-4
		l0,0c-1.2-0.5-2.4-1.2-3.3-1.9l0,0c-2-0.7-3.9-0.6-5.4,0.3c-1,0.7-1.7,1.6-2.1,2.9C219.3,327.3,219.6,330.1,219.2,333z"/>
	<path class="st3" d="M207.7,345.7c1,0.3,2.1,0.2,3.2-0.1c3.3-1.1,6.5-4.9,7.9-10.1c0.2-0.8,0.4-1.6,0.5-2.4c0.5-3,0.2-5.8-0.8-7.9
		c-0.8-2-2.2-3.5-4-4c-2-0.5-4.2,0.2-6.1,1.9c-1.8,1.6-3.4,3.9-4.4,6.8c-0.2,0.5-0.3,1-0.5,1.5C201.5,338.1,203.4,344.5,207.7,345.7
		z"/>
	<path class="st3" d="M187,330c1.7,3.7,7.7,4.5,13.5,1.8c1.2-0.6,2.4-1.3,3.4-2c1-2.9,2.6-5.2,4.4-6.8c0.1-0.9,0-1.8-0.4-2.7
		c-1.7-3.7-7.7-4.5-13.5-1.8C188.6,321.2,185.3,326.3,187,330z"/>
	
		<ellipse transform="matrix(0.3464 -0.9381 0.9381 0.3464 -160.7495 386.2912)" class="st4" cx="196.8" cy="308.5" rx="7.3" ry="11.5"/>
	
		<ellipse transform="matrix(0.9987 -5.090681e-02 5.090681e-02 0.9987 -14.8356 11.1261)" class="st3" cx="211" cy="296.8" rx="7.3" ry="11.5"/>
	<path class="st3" d="M221,310.7c0.9,0.9,2.1,1.4,3.5,1.5c2.1,0.2,4.6-0.6,7-2.2c1-0.6,1.9-1.4,2.8-2.3c4.5-4.5,5.8-10.4,2.9-13.3
		c-2.9-2.9-8.8-1.5-13.3,3C219.5,301.9,218.1,307.8,221,310.7z"/>
	<path class="st3" d="M225.9,321.9L225.9,321.9c1,0.7,2.1,1.4,3.4,1.9l0,0c0.9,0.4,2,0.7,3,0.9c6.2,1.3,11.9-0.9,12.7-4.8
		c0.8-4-3.5-8.2-9.7-9.5c-1.3-0.3-2.6-0.4-3.8-0.4c-2.4,1.6-4.9,2.3-7,2.2c-1,0.8-1.7,1.8-1.9,3C222.1,317.5,223.5,320,225.9,321.9z
		"/>
</g>
<g>
	<path class="st1" d="M155.9,467.6c0,0-55.1-115,13.3-261.1"/>
	<path class="st2" d="M168.8,206.5c0,0,13.3-1.4,24-16.8c0,0,5.1-6.5,2.1-10.6c-3.1-4.1-9.2-2.4-9.2-2.4s-3.8-1-11.6,7.5
		C166.1,192.8,168.8,206.5,168.8,206.5z"/>
	<path class="st2" d="M156,232.3c0,0,3.2-16.6-4.3-32.4c0,0-3-7.5-6.8-4.4c-3.8,3-4.6,10.9-4.6,10.9s-1.9,4.4,1.7,15.6
		C145.5,233.2,156,232.3,156,232.3z"/>
	<path class="st2" d="M163.2,230.4c0,0,4-10.6,19.9-15.8c0,0,6.8-2.7,9.9,0.7c3,3.5,0.2,8.1,0.2,8.1s0.1,3.3-9.1,7.8
		C174.8,235.7,163.2,230.4,163.2,230.4z"/>
	<path class="st2" d="M147.8,263.1c0,0-1.1-15.8-11.3-28.3c0,0-4.3-6-7-2.4s-1.5,11-1.5,11s-0.6,4.5,5.1,13.7
		C138.9,266.5,147.8,263.1,147.8,263.1z"/>
	<path class="st2" d="M148.3,263.7c0,0-0.2-7.7,13-16.4c0,0,5.5-4,9.7-3s3.2,4.8,3.2,4.8s1.4,1.9-5.8,7.9
		C161.3,262.8,148.3,263.7,148.3,263.7z"/>
	<path class="st2" d="M140.1,290.7c0,0-6.2-15.7-18.4-25.8c0,0-5.4-5-6.2-0.6s2.6,11.5,2.6,11.5s1,4.7,8.6,12.6
		S140.1,290.7,140.1,290.7z"/>
	<path class="st2" d="M142.6,296.7c0,0,3.3-13.6,15.5-22.7c0,0,5.3-4.5,7.5-0.9s0,9.8,0,9.8s0,4-7.1,11.1
		C151.3,301.1,142.6,296.7,142.6,296.7z"/>
	<path class="st2" d="M135,326.2c0,0-6.2-15.7-18.4-25.8c0,0-5.4-5-6.2-0.6c-0.8,4.4,2.6,11.5,2.6,11.5s1,4.7,8.6,12.6
		C129.2,331.9,135,326.2,135,326.2z"/>
	<path class="st2" d="M138.3,332.3c0,0-1.4-7.4,8.5-17.1c0,0,4.1-4.4,7.8-3.9s3.5,4.3,3.5,4.3s1.5,1.7-3.7,8.2
		C149.3,330.1,138.3,332.3,138.3,332.3z"/>
	<path class="st2" d="M131.7,366c0,0-3.3-9.3-15.2-14.4c0,0-5.1-2.6-7.2,0.3s0.1,7,0.1,7s0,2.9,7,7.1
		C123.3,370.2,131.7,366,131.7,366z"/>
	<path class="st2" d="M139.5,366.2c0,0-1.6-7.6,6.6-17c0,0,3.4-4.3,6.7-3.6c3.3,0.7,3.3,4.5,3.3,4.5s1.4,1.8-2.8,8.1
		C149.1,364.5,139.5,366.2,139.5,366.2z"/>
</g>
<g>
	<path class="st1" d="M514,469.1c34.5-15,75.5-135.1,90.4-148.2"/>
	<path class="st2" d="M604.7,320.1c0,0,6.8,0.1,15.4-13.7c0,0,3.9-5.8,3.4-10.1c-0.6-4.3-4-3.4-4-3.4s-1.6-1.4-7.3,6.1
		C606.4,306.5,604.7,320.1,604.7,320.1z"/>
	<path class="st2" d="M586.1,341.8c0,0,4.7-5.1,0.9-18.8c0,0-1.3-6-4.7-7.8s-5,1.3-5,1.3s-2.1,0.5-0.8,8.7
		C577.8,333.5,586.1,341.8,586.1,341.8z"/>
	<path class="st2" d="M561.6,413c0,0,2.9-6.6,17.9-8.6c0,0,6.4-1.2,9.6,1.3c3.2,2.5,0.9,5.3,0.9,5.3s0.4,2.2-8.1,4.3
		S561.6,413,561.6,413z"/>
	<path class="st2" d="M577,367.4c0,0,1.3-12.2-5.9-23.4c0,0-3-5.3-5.8-2.9c-2.9,2.4-2.8,8.1-2.8,8.1s-1.2,3.3,2.5,11.3
		C568.7,368.6,577,367.4,577,367.4z"/>
	<path class="st2" d="M593.9,347.3c0,0,1.7-7.6,16.6-12.9c0,0,6.3-2.6,10.1-0.7c3.8,2,2,5.4,2,5.4s0.9,2.2-7.5,6.3
		C606.8,349.5,593.9,347.3,593.9,347.3z"/>
	<path class="st2" d="M567.1,387.2c0,0-0.7-10.6-8.8-19c0,0-3.4-4.1-5.6-1.6c-2.2,2.4-1.3,7.3-1.3,7.3s-0.5,3,4,9.2
		C559.9,389.3,567.1,387.2,567.1,387.2z"/>
	<path class="st2" d="M581.4,367.6c0,0,6.9-7.8,19.1-9c0,0,5.4-0.9,5.9,2.5s-3.2,6.6-3.2,6.6s-1.3,2.7-9,4.6
		C586.5,374.1,581.4,367.6,581.4,367.6z"/>
	<path class="st2" d="M555,408.3c0,0-5-12.5-15.4-20.2c0,0-4.6-3.9-5.4-0.3c-0.8,3.6,2,9.2,2,9.2s0.8,3.7,7.2,9.9
		C549.7,413,555,408.3,555,408.3z"/>
	<path class="st2" d="M572.3,388.7c0,0,2.6-4.9,13.2-5.7c0,0,4.6-0.6,6.6,1.4s0.2,4.1,0.2,4.1s0.1,1.7-6.1,2.9
		S572.3,388.7,572.3,388.7z"/>
</g>
<g>
	<path class="st1" d="M122.6,469.7c-34.5-15-75.5-135.1-90.4-148.2"/>
	<path class="st2" d="M31.9,320.7c0,0-6.8,0.1-15.4-13.7c0,0-3.9-5.8-3.4-10.1c0.6-4.3,4-3.4,4-3.4s1.6-1.4,7.3,6.1
		S31.9,320.7,31.9,320.7z"/>
	<path class="st2" d="M50.5,342.4c0,0-4.7-5.1-0.9-18.8c0,0,1.3-6,4.7-7.8s5,1.3,5,1.3s2.1,0.5,0.8,8.7
		C58.7,334,50.5,342.4,50.5,342.4z"/>
	<path class="st2" d="M75,413.6c0,0-2.9-6.6-17.9-8.6c0,0-6.4-1.2-9.6,1.3c-3.2,2.5-0.9,5.3-0.9,5.3s-0.4,2.2,8.1,4.3
		S75,413.6,75,413.6z"/>
	<path class="st2" d="M59.5,368c0,0-1.3-12.2,5.9-23.4c0,0,3-5.3,5.8-2.9c2.9,2.4,2.8,8.1,2.8,8.1s1.2,3.3-2.5,11.3
		C67.9,369.1,59.5,368,59.5,368z"/>
	<path class="st2" d="M42.7,347.9c0,0-1.7-7.6-16.6-12.9c0,0-6.3-2.6-10.1-0.7c-3.8,2-2,5.4-2,5.4s-0.9,2.2,7.5,6.3
		C29.8,350.1,42.7,347.9,42.7,347.9z"/>
	<path class="st2" d="M69.5,387.7c0,0,0.7-10.6,8.8-19c0,0,3.4-4.1,5.6-1.6c2.2,2.4,1.3,7.3,1.3,7.3s0.5,3-4,9.2
		S69.5,387.7,69.5,387.7z"/>
	<path class="st2" d="M55.2,368.2c0,0-6.9-7.8-19.1-9c0,0-5.4-0.9-5.9,2.5s3.2,6.6,3.2,6.6s1.3,2.7,9,4.6
		C50.1,374.7,55.2,368.2,55.2,368.2z"/>
	<path class="st2" d="M81.6,408.9c0,0,5-12.5,15.4-20.2c0,0,4.6-3.9,5.4-0.3s-2,9.2-2,9.2s-0.8,3.7-7.2,9.9S81.6,408.9,81.6,408.9z"
		/>
	<path class="st2" d="M64.3,389.3c0,0-2.6-4.9-13.2-5.7c0,0-4.6-0.6-6.6,1.4s-0.2,4.1-0.2,4.1s-0.1,1.7,6.1,2.9
		S64.3,389.3,64.3,389.3z"/>
</g>
<g>
	<circle class="st5" cx="318.8" cy="145.8" r="21"/>
	<line class="st5" x1="318.8" y1="124.7" x2="318.8" y2="166.8"/>
	<line class="st5" x1="297.8" y1="145.8" x2="339.8" y2="145.8"/>
</g>
<rect x="81.6" y="488.6" class="st6" width="524.8" height="102.7"/>
<text transform="matrix(1 0 0 1 81.6261 544.0725)" class="st7 st8">Lovely House</text>
<g>
	<polygon class="st1" points="409.6,468 401.1,419.9 401.1,401.3 468.7,401.3 468.7,419 457.7,468 	"/>
	<line class="st1" x1="401.1" y1="419.9" x2="468.7" y2="419.9"/>
	<path class="st1" d="M434.9,401.3c0.1,0,0-57.8,0-57.8"/>
	<path class="st2" d="M434.9,395.7c0,0-18.1-12.6-22.8-24.7c-4.8-12.2-14.9-16.6-5.9-17.6c1.5-0.2,1.7-0.1,1.7-0.1
		C405.1,352.8,429.1,349.9,434.9,395.7z"/>
	<path class="st2" d="M434.9,381.5l9.3-15.1c1.2-2,2.6-3.8,4-5.6c3-3.5,8.3-9.9,12.1-14.3c6.3-7.4,4.6,13.4,4.6,13.4
		s-6.1,21.5-30.2,32"/>
	<ellipse class="st2" cx="432.1" cy="316.7" rx="16.1" ry="16.7"/>
	<path class="st3" d="M426.5,332.1c-0.4,0.9-0.9,1.9-1.5,2.8c-3.5,5.3-9,7.8-12.4,5.6c-3.4-2.2-3.3-8.3,0.2-13.6
		c1.1-1.6,2.3-3,3.6-4l0,0c1.2-0.5,2.4-1.2,3.3-1.9l0,0c2-0.7,3.9-0.6,5.4,0.3c1,0.7,1.7,1.6,2.1,2.9
		C426.4,326.3,426.1,329.1,426.5,332.1z"/>
	<path class="st3" d="M438.1,344.7c-1,0.3-2.1,0.2-3.2-0.1c-3.3-1.1-6.5-4.9-7.9-10.1c-0.2-0.8-0.4-1.6-0.5-2.4
		c-0.5-3-0.2-5.8,0.8-7.9c0.8-2,2.2-3.5,4-4c2-0.5,4.2,0.2,6.1,1.9c1.8,1.6,3.4,3.9,4.4,6.8c0.2,0.5,0.3,1,0.5,1.5
		C444.2,337.1,442.3,343.6,438.1,344.7z"/>
	<path class="st3" d="M458.7,329.1c-1.7,3.7-7.7,4.5-13.5,1.8c-1.2-0.6-2.4-1.3-3.4-2c-1-2.9-2.6-5.2-4.4-6.8
		c-0.1-0.9,0-1.8,0.4-2.7c1.7-3.7,7.7-4.5,13.5-1.8C457.1,320.3,460.4,325.4,458.7,329.1z"/>
	
		<ellipse transform="matrix(0.9381 -0.3464 0.3464 0.9381 -78.7511 174.5404)" class="st4" cx="448.9" cy="307.6" rx="11.5" ry="7.3"/>
	
		<ellipse transform="matrix(5.090681e-02 -0.9987 0.9987 5.090681e-02 117.0907 714.952)" class="st3" cx="434.7" cy="295.9" rx="11.5" ry="7.3"/>
	<path class="st3" d="M424.7,309.7c-0.9,0.9-2.1,1.4-3.5,1.5c-2.1,0.2-4.6-0.6-7-2.2c-1-0.6-1.9-1.4-2.8-2.3
		c-4.5-4.5-5.8-10.4-2.9-13.3s8.8-1.5,13.3,3C426.3,300.9,427.6,306.9,424.7,309.7z"/>
	<path class="st3" d="M419.8,321L419.8,321c-1,0.7-2.1,1.4-3.4,1.9l0,0c-0.9,0.4-2,0.7-3,0.9c-6.2,1.3-11.9-0.9-12.7-4.8
		c-0.8-4,3.5-8.2,9.7-9.5c1.3-0.3,2.6-0.4,3.8-0.4c2.4,1.6,4.9,2.3,7,2.2c1,0.8,1.7,1.8,1.9,3C423.6,316.6,422.3,319.1,419.8,321z"
		/>
</g>
<rect x="198.6" y="572.1" class="st6" width="274.8" height="51.6"/>
<text transform="matrix(1 0 0 1 198.6002 605.1988)" class="st7 st9">ESTD 2023</text>
</svg>
