<?xml version="1.0" encoding="utf-8"?>
<!-- Generator: Adobe Illustrator 27.0.0, SVG Export Plug-In . SVG Version: 6.00 Build 0)  -->
<svg version="1.1" id="Слой_1" xmlns="http://www.w3.org/2000/svg" xmlns:xlink="http://www.w3.org/1999/xlink" x="0px" y="0px"
	 viewBox="0 0 2381.1 339" style="enable-background:new 0 0 2381.1 339;" xml:space="preserve">
<g>
	<g>
		<path d="M9.6,263.8c210.7-19.2,421-43.2,630.6-71.6c210.1-28.5,419.5-61.7,628.1-99.6c117.4-21.3,234.5-44,351.3-68.2
			c-2.7-9.6-5.3-19.3-8-28.9c-174,59.8-351.4,109.3-530.3,152c-177.9,42.5-357.3,78.3-537,111.8c-101.7,18.9-203.5,37.1-305.4,55.3
			c-16.6,3-12.8,30.2,4,29.5c263.8-12.1,527.7-22.9,791.7-31.2c262.4-8.2,524.8-14,787.3-16c147.7-1.2,295.5-1.1,443.2,0.3
			c19.8,0.2,18.7-27.8,0-30c-263.6-30.6-527.2-61.2-791.3-87.5c-263.8-26.3-528.1-48.3-792.9-61.8c-148.3-7.5-296.7-12.4-445.2-13.8
			c-16.4-0.2-21,26.4-4,29.5c275.1,49.3,555.3,54.8,834.1,47.8c278.6-7,556.9-25.8,835.7-23.7c157.1,1.1,314.2,9.1,470,29.3
			c8.1,1.1,14.9-7.6,15-15c0.1-9-7-14-15-15c-276.2-35.8-555.4-32.7-833.2-22.8c-278.1,9.9-556.4,26.5-834.8,16.9
			c-155.4-5.3-310.6-19-463.8-46.4c-1.3,9.8-2.7,19.6-4,29.5c265,2.6,529.8,16,794,36.1c264.5,20.2,528.5,47,792.1,76.3
			c147.8,16.4,295.6,33.5,443.3,50.7c0-10,0-20,0-30c-264.1-2.5-528.1-0.6-792.1,4.6c-262.5,5.1-524.9,13.3-787.2,23.6
			c-147.7,5.8-295.3,12.1-442.9,18.9c1.3,9.8,2.7,19.6,4,29.5c180.7-32.2,361.4-64.5,541.3-101c179.2-36.4,357.7-77,534-126
			c100-27.8,199.3-58.3,297.5-92.1c18.3-6.3,11-32.9-8-28.9c-206.2,42.7-413.4,80.9-621.3,114.5c-207.9,33.6-416.5,62.6-625.6,87
			c-118.2,13.8-236.6,26-355.1,36.9C-9.5,235.5-9.7,265.5,9.6,263.8L9.6,263.8z"/>
	</g>
</g>
</svg>
