<?xml version="1.0" encoding="utf-8"?>
<!-- Generator: Adobe Illustrator 27.0.0, SVG Export Plug-In . SVG Version: 6.00 Build 0)  -->
<svg version="1.1" id="Слой_1" xmlns="http://www.w3.org/2000/svg" xmlns:xlink="http://www.w3.org/1999/xlink" x="0px" y="0px"
	 viewBox="0 0 1366 768" style="enable-background:new 0 0 1366 768;" xml:space="preserve">
<style type="text/css">
	.st0{fill:#F0BF5F;stroke:#F0BF5F;stroke-miterlimit:10;}
	.st1{fill:#F0BF5F;}
</style>
<path class="st0" d="M719.4,36.3c-13-13.5-34.5-13.9-48-0.9l-94.1,89.5c19.1-0.5,95.7,0.7,100.8,0.5l40.5-41.1
	C732.1,71.3,732.4,49.8,719.4,36.3z"/>
<path class="st0" d="M418.3,277.2c-0.5,40.2-0.5,40.2-1.1,95l133-129.4l-0.9-38.5l-1-16.5l-0.5-22.3v-13.1L418.3,277.2z"/>
<path class="st1" d="M769.2,133.7c0,0,12.3,3.1,30.4,11.5c7.6,3.5,23.8,13.8,56.5,38L720.4,36.7c-13.3-13.3-34.7-13.3-48,0
	s-13.3,34.7,0,48l44.2,44.5C718.1,126.6,754.8,128.8,769.2,133.7z"/>
<path class="st1" d="M971,400.5c-1.3-52.4-1.3-52.4-1.4-90.2L869.5,210.1c12.3,31.7,23.7,57.9,9.2,115.6L971,400.5z"/>
<g>
	<path class="st1" d="M722.1,145.1c39.3,0,72.4,13.2,99.5,39.7c26.8,26.4,40.3,59,40.3,97.7s-13.4,71-40.3,97.7
		c-26.8,26.4-60,39.7-99.5,39.7h-71.8v134.6h-80.7V145.1H722.1z M722.1,344.6c17.2,0,31.4-5.9,42.6-17.8c11.2-11.8,17-26.6,17-44.2
		c0-18-5.7-32.8-17-44.4c-11.2-11.6-25.5-17.6-42.6-17.6h-71.8v123.9H722.1z"/>
</g>
</svg>
