<?xml version="1.0" encoding="utf-8"?>
<!-- Generator: Adobe Illustrator 27.0.0, SVG Export Plug-In . SVG Version: 6.00 Build 0)  -->
<svg version="1.1" id="Слой_1" xmlns="http://www.w3.org/2000/svg" xmlns:xlink="http://www.w3.org/1999/xlink" x="0px" y="0px"
	 viewBox="0 0 1359.3 742.6" style="enable-background:new 0 0 1359.3 742.6;" xml:space="preserve">
<style type="text/css">
	.st0{fill:#CC9933;}
</style>
<g>
	<path class="st0" d="M182.1,549.5c-0.6-19-0.5-38.1-0.2-57.2L17.1,651.2c-13.5,13-13.9,34.5-0.9,48v0c13,13.5,34.5,13.9,48,0.9
		l119-114.7c0-0.8,0-1.7,0.1-2.5C182.3,571.7,182.1,560.6,182.1,549.5z"/>
	<path class="st0" d="M713.6,26.9L713.6,26.9c-13-13.5-34.5-13.9-48-0.9L305.8,372.9c16.3,0.8,31.7,5.4,45.2,19.6
		c5.3,5.6,9.5,12,12.8,18.8l349-336.4C726.3,61.9,726.6,40.4,713.6,26.9z"/>
	<path class="st0" d="M1338.5,651.2l-141.4-141.4c-8.7-0.2-12.4-0.3-28.6,0c-0.2,21.6,0,45.9,0,67.4l122,122
		c13.3,13.3,34.7,13.3,48,0v0C1351.8,685.9,1351.8,664.4,1338.5,651.2z"/>
	<path class="st0" d="M1018.8,427.1c16.9,0,41-0.2,57.6-0.6c12.3-0.3,24.5-0.1,36.8-0.6L714.6,27.3c-13.3-13.3-34.7-13.3-48,0
		c-13.3,13.3-13.3,34.7,0,48l349.4,352C1020.7,426.2,1013.8,427.1,1018.8,427.1z"/>
	<g>
		<path class="st0" d="M282.6,392.6c19.9,0,36.7,6.7,50.4,20.1c13.6,13.4,20.4,29.9,20.4,49.5c0,19.6-6.8,36-20.4,49.5
			c-13.6,13.4-30.4,20.1-50.4,20.1h-36.4V600h-40.9V392.6H282.6z M282.6,493.7c8.7,0,15.9-3,21.6-9c5.7-6,8.6-13.5,8.6-22.4
			c0-9.1-2.9-16.6-8.6-22.5c-5.7-5.9-12.9-8.9-21.6-8.9h-36.4v62.8H282.6z"/>
		<path class="st0" d="M400.8,541.7c5.1,18.6,19.1,27.9,41.8,27.9c14.6,0,25.7-4.9,33.2-14.8l30.8,17.8
			c-14.6,21.1-36.1,31.7-64.6,31.7c-24.5,0-44.1-7.4-59-22.2c-14.8-14.8-22.2-33.5-22.2-56c0-22.3,7.3-40.9,21.9-55.8
			c14.6-14.9,33.4-22.4,56.3-22.4c21.7,0,39.7,7.5,53.8,22.5c14.1,15,21.2,33.6,21.2,55.7c0,4.9-0.5,10.2-1.5,15.7H400.8z
			 M400.2,512h75.6c-2.2-10.1-6.7-17.6-13.5-22.5c-6.8-4.9-14.6-7.4-23.3-7.4c-10.3,0-18.8,2.6-25.5,7.9
			C406.8,495.2,402.4,502.6,400.2,512z"/>
		<path class="st0" d="M694.7,451.9V600h-37v-86.5L620,572.8h-4.7l-37.9-59.8V600h-36.7V451.9h37.6l39.4,62.2l39.4-62.2H694.7z"/>
		<path class="st0" d="M855.9,581.5c-15.2,15.1-33.8,22.7-55.7,22.7c-21.9,0-40.4-7.6-55.6-22.7c-15.1-15.1-22.7-33.6-22.7-55.6
			c0-21.9,7.6-40.4,22.7-55.6c15.1-15.1,33.6-22.7,55.6-22.7c21.9,0,40.5,7.6,55.7,22.7c15.2,15.1,22.8,33.6,22.8,55.6
			C878.7,547.9,871.1,566.4,855.9,581.5z M771.6,555.3c7.6,7.7,17.1,11.6,28.6,11.6c11.5,0,21-3.9,28.7-11.6s11.6-17.5,11.6-29.3
			c0-11.8-3.9-21.6-11.6-29.3s-17.3-11.6-28.7-11.6c-11.5,0-21,3.9-28.6,11.6c-7.6,7.7-11.4,17.5-11.4,29.3
			C760.2,537.8,764,547.6,771.6,555.3z"/>
		<path class="st0" d="M1002.8,451.9h38.2V600h-38.2v-56.3h-59V600h-38.2V451.9h38.2v56h59V451.9z"/>
		<path class="st0" d="M1192.7,451.9v36.7h-46.2V600h-38.2V488.6h-46.8v-36.7H1192.7z"/>
	</g>
	<g>
		<path class="st0" d="M235.3,713.7c-12.8,0-23.5-4.2-31.9-12.7c-8.4-8.5-12.6-18.9-12.6-31.1s4.2-22.7,12.6-31.1
			c8.4-8.5,19-12.7,31.9-12.7c7.8,0,15,1.9,21.6,5.6c6.5,3.8,11.6,8.8,15.2,15.2l-7.5,4.4c-2.7-5.2-6.6-9.3-11.9-12.4
			c-5.3-3.1-11-4.6-17.3-4.6c-10.6,0-19.2,3.4-25.9,10.3c-6.7,6.9-10.1,15.3-10.1,25.3s3.4,18.5,10.1,25.3
			c6.7,6.9,15.4,10.3,25.9,10.3c6.3,0,12.1-1.5,17.3-4.6c5.3-3.1,9.2-7.2,11.9-12.4l7.5,4.2c-3.5,6.4-8.5,11.5-15.1,15.3
			C250.4,711.8,243.1,713.7,235.3,713.7z"/>
		<path class="st0" d="M336.3,651.7h8v60.6h-8v-11.9c-5.6,8.9-13.7,13.3-24.5,13.3c-8.6,0-16-3.1-22.1-9.2
			c-6.1-6.1-9.2-13.7-9.2-22.5c0-8.9,3-16.4,9.2-22.5c6.1-6.1,13.5-9.2,22.1-9.2c10.7,0,18.9,4.4,24.5,13.3V651.7z M295.4,699
			c4.6,4.6,10.3,7,17,7c6.7,0,12.4-2.3,17-7c4.6-4.6,6.9-10.3,6.9-17c0-6.7-2.3-12.4-6.9-17c-4.6-4.6-10.3-7-17-7
			c-6.7,0-12.4,2.3-17,7c-4.6,4.6-6.9,10.3-6.9,17C288.5,688.7,290.8,694.4,295.4,699z"/>
		<path class="st0" d="M404.1,651.7h8v60.6h-8v-26.4h-34.9v26.4h-8v-60.6h8v26.4h34.9V651.7z"/>
		<path class="st0" d="M478.1,712.3h-10.7l-30.3-29.2v29.2h-8v-60.6h8v26.8l28.8-26.8h10.9l-31.3,29.1L478.1,712.3z"/>
		<path class="st0" d="M532.6,651.7v7.8h-21.5v52.8h-8v-52.8h-21.5v-7.8H532.6z"/>
		<path class="st0" d="M539.9,678.7V671h43.6v7.8H539.9z"/>
		<path class="st0" d="M663.5,627.4v84.8H655v-76.8h-43.6v76.8h-8.5v-84.8H663.5z"/>
		<path class="st0" d="M709.7,650.2c9,0,16.2,3.2,21.8,9.5c5.5,6.3,8.3,13.8,8.3,22.5c0,0.9-0.1,2.1-0.2,3.8h-53.2
			c0.8,6.1,3.4,11,7.8,14.6c4.4,3.6,9.8,5.4,16.3,5.4c4.6,0,8.6-0.9,11.9-2.8c3.4-1.9,5.9-4.4,7.6-7.5l7,4.1
			c-2.7,4.3-6.3,7.7-10.9,10.2c-4.6,2.5-9.9,3.8-15.8,3.8c-9.5,0-17.3-3-23.3-9c-6-6-9-13.6-9-22.8c0-9,2.9-16.6,8.8-22.7
			C692.8,653.3,700.4,650.2,709.7,650.2z M709.7,658c-6.3,0-11.6,1.9-15.8,5.6c-4.2,3.8-6.8,8.6-7.6,14.6h45.2
			c-0.8-6.4-3.3-11.3-7.4-14.9C720,659.8,715.2,658,709.7,658z"/>
		<path class="st0" d="M793.7,651.7v7.8h-21.5v52.8h-8v-52.8h-21.5v-7.8H793.7z"/>
		<path class="st0" d="M829,650.2c9,0,16.2,3.2,21.8,9.5c5.5,6.3,8.3,13.8,8.3,22.5c0,0.9-0.1,2.1-0.2,3.8h-53.2
			c0.8,6.1,3.4,11,7.8,14.6c4.4,3.6,9.8,5.4,16.3,5.4c4.6,0,8.6-0.9,11.9-2.8c3.4-1.9,5.9-4.4,7.6-7.5l7,4.1
			c-2.7,4.3-6.3,7.7-10.9,10.2c-4.6,2.5-9.9,3.8-15.8,3.8c-9.5,0-17.3-3-23.3-9c-6-6-9-13.6-9-22.8c0-9,2.9-16.6,8.8-22.7
			C812.1,653.3,819.7,650.2,829,650.2z M829,658c-6.3,0-11.6,1.9-15.8,5.6c-4.2,3.8-6.8,8.6-7.6,14.6h45.2
			c-0.8-6.4-3.3-11.3-7.4-14.9C839.3,659.8,834.5,658,829,658z"/>
		<path class="st0" d="M904.2,650.2c8.6,0,16,3.1,22.1,9.2c6.1,6.1,9.2,13.7,9.2,22.5c0,8.9-3.1,16.4-9.2,22.5
			c-6.1,6.1-13.5,9.2-22.1,9.2c-10.7,0-18.9-4.4-24.5-13.3v36.1h-8v-84.8h8v11.9C885.3,654.7,893.5,650.2,904.2,650.2z M886.7,699
			c4.6,4.6,10.3,7,17,7s12.4-2.3,17-7c4.6-4.6,6.9-10.3,6.9-17c0-6.7-2.3-12.4-6.9-17c-4.6-4.6-10.3-7-17-7s-12.4,2.3-17,7
			c-4.6,4.6-6.9,10.3-6.9,17C879.7,688.7,882,694.4,886.7,699z"/>
		<path class="st0" d="M975.7,713.7c-8.7,0-16-2.9-21.8-8.7c-5.8-5.8-8.7-13.3-8.7-22.5c0-10.3,1.5-18.3,4.6-23.8
			c3.1-5.5,9.3-10.6,18.7-15.1c1.8-0.9,4.1-1.9,7.1-3.1c2.9-1.2,5.2-2.2,6.7-2.9c1.5-0.7,3.1-1.7,4.9-2.8c1.8-1.2,3.1-2.5,4-3.9
			c0.9-1.5,1.5-3.2,1.7-5.2l6.3,3.6c-0.3,1.9-1,3.8-1.9,5.5c-1,1.7-2,3.1-3,4.1c-1,1-2.6,2.2-4.7,3.5c-2.1,1.3-3.8,2.1-5,2.7
			c-1.2,0.5-3.2,1.4-6.1,2.6c-2.9,1.2-4.8,2-5.8,2.4c-5.7,2.4-9.8,5-12.5,7.6c-2.7,2.6-4.6,6-5.7,10.2c2.7-3.6,6.2-6.3,10.5-8.1
			c4.2-1.7,8.4-2.6,12.4-2.6c8.1,0,14.8,2.6,20.1,7.9c5.3,5.3,7.9,12.1,7.9,20.3c0,8.2-2.8,14.9-8.4,20.3
			C991.4,711.1,984.3,713.7,975.7,713.7z M975.7,705.7c6.3,0,11.5-1.9,15.6-5.8c4.1-3.8,6.1-8.7,6.1-14.6c0-6-1.9-10.9-5.8-14.7
			c-3.8-3.8-9-5.8-15.3-5.8c-5.7,0-11,1.8-15.6,5.4c-4.7,3.6-7,8.4-7,14.4c0,6.1,2.1,11.2,6.4,15.2
			C964.3,703.8,969.5,705.7,975.7,705.7z"/>
		<path class="st0" d="M1058.8,651.7h8.5l-25.9,66.2c-2.3,6-5.7,10.7-10,14.1c-4.3,3.4-9.2,4.9-14.5,4.5V729
			c7.3,0.8,12.8-3.4,16.6-12.6l1.6-3.8l-27.1-61h8.5l22.8,50.8L1058.8,651.7z"/>
		<path class="st0" d="M1109.4,650.2c8.6,0,16,3.1,22.1,9.2c6.1,6.1,9.2,13.7,9.2,22.5c0,8.9-3.1,16.4-9.2,22.5
			c-6.1,6.1-13.5,9.2-22.1,9.2c-10.7,0-18.9-4.4-24.5-13.3v36.1h-8v-84.8h8v11.9C1090.5,654.7,1098.7,650.2,1109.4,650.2z
			 M1091.9,699c4.6,4.6,10.3,7,17,7s12.4-2.3,17-7c4.6-4.6,6.9-10.3,6.9-17c0-6.7-2.3-12.4-6.9-17c-4.6-4.6-10.3-7-17-7
			s-12.4,2.3-17,7c-4.6,4.6-6.9,10.3-6.9,17C1084.9,688.7,1087.2,694.4,1091.9,699z"/>
		<path class="st0" d="M1192.8,651.7v7.8H1162v52.8h-8v-60.6H1192.8z"/>
	</g>
</g>
</svg>
